<svg width="128" height="128" xmlns="http://www.w3.org/2000/svg" version="1.1" enable-background="new 0 0 122.315 122.88" xml:space="preserve">
 <g>
  <title>Layer 1</title>
  <g stroke="null" stroke-width="0" id="svg_1">
   <path stroke="null" fill-rule="evenodd" clip-rule="evenodd" d="m98.07666,16.42343c8.97054,0 16.24311,7.27258 16.24311,16.24109c0,8.97054 -7.27258,16.24414 -16.24311,16.24414c-8.96952,0 -16.2421,-7.27258 -16.2421,-16.24414c0,-8.96851 7.27258,-16.24109 16.2421,-16.24109l0,0zm14.71862,38.12476c-7.30809,0 -13.23569,5.9276 -13.23569,13.23468c0,7.31012 5.9276,13.23569 13.23569,13.23772c7.31012,0 13.23772,-5.9276 13.23772,-13.23772c-0.00101,-7.30706 -5.9276,-13.23468 -13.23772,-13.23468l0,0zm-15.34647,38.32256c-5.104,0 -9.2444,4.1404 -9.2444,9.24338c0,5.104 4.1404,9.2444 9.2444,9.2444c5.10299,0 9.24338,-4.1404 9.24338,-9.2444c0,-5.10299 -4.1404,-9.24338 -9.24338,-9.24338l0,0zm-35.35875,14.95798c-5.104,0 -9.2444,4.13939 -9.2444,9.24338c0,5.10603 4.1404,9.24642 9.2444,9.24642s9.24338,-4.1404 9.24338,-9.24642c0.00101,-5.104 -4.13837,-9.24338 -9.24338,-9.24338l0,0zm-36.13266,-13.9873c-4.78449,0 -8.66218,3.87769 -8.66218,8.66218c0,4.78246 3.87769,8.66218 8.66218,8.66218c4.78144,0 8.66015,-3.87972 8.66015,-8.66218c0,-4.78347 -3.87871,-8.66218 -8.66015,-8.66218l0,0zm-14.76425,-36.50289c-5.09588,0 -9.22613,4.13026 -9.22613,9.22613c0,5.09284 4.13026,9.22309 9.22613,9.22309c5.09284,0 9.22309,-4.13026 9.22309,-9.22309c0,-5.09588 -4.13128,-9.22613 -9.22309,-9.22613l0,0zm14.76425,-38.38748c-6.44491,0 -11.67265,5.22876 -11.67265,11.67366s5.22774,11.67061 11.67265,11.67061s11.67061,-5.22571 11.67061,-11.67061s-5.22571,-11.67366 -11.67061,-11.67366l0,0zm36.19962,-17.2696c-7.76046,0 -14.05627,6.29377 -14.05627,14.05323c0,7.76046 6.2958,14.05424 14.05627,14.05424s14.05424,-6.29377 14.05424,-14.05424c0,-7.75944 -6.29377,-14.05323 -14.05424,-14.05323l0,0z" id="svg_2" fill="#5e5e5e" opacity="0.8"/>
  </g>
  <g stroke="null" stroke-width="0" id="svg_3">
   <g stroke="null" id="svg_4">
    <path stroke="null" id="svg_5" d="m77.01078,129.94233c-0.28714,1.50557 -0.79159,2.88698 -1.5211,4.15198c-0.75279,1.29603 -1.7384,2.4679 -2.94907,3.49231c-1.21842,1.02442 -2.53774,1.80049 -3.97348,2.32046c-1.43572,0.51995 -2.95682,0.77607 -4.56329,0.77607c-1.61422,0 -3.13531,-0.26387 -4.56329,-0.77607c-1.42797,-0.51995 -2.75504,-1.28828 -3.96571,-2.32046c-1.21842,-1.03218 -2.19628,-2.19628 -2.94907,-3.49231c-0.75279,-1.29603 -1.26499,-2.72401 -1.54438,-4.29167c-0.13969,-0.76056 0.37251,-1.49005 1.13307,-1.62974c0.02328,0 0.24835,-0.02328 0.24835,-0.02328l23.2976,0c0.77607,0 1.41244,0.62862 1.41244,1.41244c-0.00776,0.13193 -0.03103,0.25611 -0.06209,0.38026l0,0l0,0l0.00002,0l0,0.00001zm-42.38114,-84.42858c1.4202,-0.56653 3.02668,0.13193 3.5932,1.55213c0.56653,1.4202 -0.13193,3.02668 -1.55213,3.5932c-3.07325,1.22619 -5.64979,2.92577 -7.70636,5.12982c-2.04882,2.20403 -3.5932,4.9358 -4.60209,8.21856c-0.45011,1.45901 -2.00225,2.28164 -3.46127,1.83152c-1.45901,-0.45011 -2.28164,-2.00225 -1.83152,-3.46127c1.26499,-4.11316 3.22069,-7.55891 5.83605,-10.36829c2.61535,-2.80161 5.86709,-4.95908 9.72416,-6.4957l0,0l-0.00002,0l-0.00001,0.00002zm56.69962,5.14534c-1.4202,-0.56653 -2.11867,-2.173 -1.55213,-3.5932c0.56653,-1.4202 2.173,-2.11867 3.5932,-1.55213c3.85707,1.53662 7.1088,3.69409 9.72416,6.50345c2.61535,2.81713 4.57881,6.26289 5.83605,10.36829c0.45011,1.45901 -0.37251,3.01116 -1.83152,3.46127c-1.45901,0.45011 -3.01116,-0.37251 -3.46127,-1.83152c-1.00889,-3.29055 -2.55327,-6.0223 -4.60209,-8.21856c-2.05658,-2.21179 -4.63315,-3.91139 -7.70636,-5.13758l0,0l-0.00002,0l-0.00001,-0.00001zm-16.57684,3.92691c1.58317,0.62862 3.10428,1.38141 4.56329,2.25837c0.05432,0.03881 0.11641,0.06984 0.17073,0.10866c1.39692,0.86143 2.70072,1.80825 3.89587,2.83265c2.55327,2.19628 4.6797,4.77283 6.36377,7.69084c0.83816,1.45901 1.5599,2.9801 2.15748,4.54775l0,0c0.6131,1.62199 1.07098,3.27501 1.38141,4.9746c0.30266,1.70734 0.45787,3.45351 0.45787,5.24622c0,3.53888 0,5.45576 0,5.6886c0.00776,1.81601 0.01552,3.5932 0.03103,5.32383l0,0.01552l0,0c0.00776,1.56765 0.10866,3.14309 0.30266,4.7185c0.19402,1.5599 0.47341,3.06546 0.83816,4.51672l0,0c0.36474,1.42797 0.86143,2.80938 1.47453,4.12869c0.63638,1.35812 1.41244,2.69295 2.32046,3.989l0.00776,0c0.90025,1.27276 2.02555,2.53774 3.3759,3.77947c1.39692,1.28051 3.01116,2.54551 4.8582,3.77169c1.05546,0.70622 1.3426,2.14194 0.62862,3.1974c-0.44235,0.65965 -1.17187,1.02442 -1.91689,1.02442l0,0.00776l-20.83745,0l-20.82194,0l-20.83745,0l-20.8297,0c-1.28051,0 -2.31269,-1.03218 -2.31269,-2.31269c0,-0.83816 0.45011,-1.57541 1.11755,-1.97898c1.87032,-1.26499 3.47679,-2.52223 4.81939,-3.76393c1.33484,-1.23394 2.45238,-2.49893 3.35261,-3.80274c0.02328,-0.03881 0.05432,-0.0776 0.08537,-0.10866c0.86919,-1.27276 1.61422,-2.56879 2.22732,-3.88811c0.62862,-1.3426 1.13307,-2.72401 1.50557,-4.14421c0.00776,-0.03103 0.01552,-0.06209 0.02328,-0.08537c0.35699,-1.38141 0.62862,-2.84041 0.81488,-4.36928c0.18627,-1.53662 0.28714,-3.12755 0.28714,-4.76508l0,-10.94258c0,-1.76168 0.15521,-3.50785 0.47341,-5.25399c0.3182,-1.7384 0.77607,-3.40694 1.38917,-4.99789c0.60535,-1.59095 1.33484,-3.1198 2.18076,-4.57881c1.70734,-2.94907 3.82602,-5.50233 6.4181,-7.71412c1.26499,-1.07873 2.63088,-2.06434 4.09764,-2.94131c1.48229,-0.88473 3.01891,-1.62974 4.60209,-2.23509c1.10202,-0.41908 2.24285,-0.76831 3.40694,-1.05546c0.3958,-1.38917 1.07873,-2.51447 2.04882,-3.3759c1.33484,-1.18739 3.08876,-1.7772 5.26951,-1.75392c2.15748,0.01552 3.90362,0.6131 5.22294,1.80049c4.66418,4.15198 -1.14082,1.87032 5.38592,4.44688l0,0l0,0.00003l-0.00001,0.00001z" fill="#b1b2b3" opacity="0.9"/>
   </g>
  </g>
 </g>

</svg>